<?xml version="1.0" encoding="UTF-8" standalone="no"?>
<svg style="enable-background:new 0 0 464 464" xmlns="http://www.w3.org/2000/svg" xml:space="preserve" viewBox="0 0 464 464" version="1.1" y="0px" x="0px" xmlns:xlink="http://www.w3.org/1999/xlink"><path d="m456 226c-12 4-26 6-40 6-6.53 0-12.9-0.619-19.2-1.51-0.594 0.696-1.14 1.43-1.89 2l-13.5 10.2c-4.39 3.32-10.4 3.45-15 0.33l-19-12c-5.24-3.61-6.63-8.55-3.8-14.2 0.663-1.34 1.22-4.05-1.46-5.71-38-23-63-66-63-114 0-27.5 8.27-53.1 22.4-74.5 2.94-4.47 0.578-10.5-4.55-12-24.3-7.19-50.2-10.5-77.1-9.25-117 5.67-213 101-220 219-7.15 134 99.4 245 232 245 128 0 232-104 232-232 0-3-2-8-8-6z" fill="#B97850"/><path d="m96 232c0-112 79-205 184-227-15.5-3.26-31.5-5-48-5-128 0-232 104-232 232s104 232 232 232c16.5 0 32.5-1.74 48-5-105-22-184-115-184-227z" fill="#A5694B"/><path d="m192 224l-7.96 23.9c-2.52 7.55 0.902 15.8 8.02 19.4l25.3 12.6c6.16 3.08 13.6 1.87 18.5-3l15-15c5.19-5.19 6.18-13.2 2.41-19.5l-12.9-21.5c-2.89-4.82-8.1-7.77-13.7-7.77h-19.4c-6 1-12 6-15 12z" fill="#734B46"/><path d="m104 120l7.57 24c2.39 7.59 10 12.3 17.9 11l27.9-4.6c6.8-1.12 12.1-6.46 13.2-13.3l3.35-21c1.16-7.25-2.77-14.4-9.52-17.2l-23.1-9.85c-5.17-2.21-11.1-1.54-15.7 1.76l-15.7 11.4c-5 4-7 12-5 18z" fill="#734B46"/><path d="m275 96.4l-20.2 15c-6.4 4.74-8.35 13.5-4.57 20.5l13.4 24.9c3.27 6.06 10.1 9.35 16.8 8.16l20.9-3.66c7.23-1.26 12.7-7.29 13.2-14.6l1.8-25c0.403-5.61-2.16-11-6.76-14.2l-15.9-11.2c-5-3.6-13-3.5-18 0.6z" fill="#734B46"/><path d="m63.1 254l5.28 19.4c1.67 6.14 7.6 10.1 13.9 9.34l22.4-2.78c5.46-0.677 9.88-4.78 11-10.2l3.35-16.6c1.16-5.75-1.75-11.6-7.05-14.1l-18.1-8.61c-4.06-1.93-8.83-1.58-12.6 0.904l-12.9 8.59c-4.6 4-6.8 10-5.3 15z" fill="#734B46"/><path d="m344 302l-24.5-5.66c-7.76-1.79-15.7 2.4-18.5 9.82l-10.2 26.4c-2.48 6.42-0.576 13.7 4.73 18.1l16.4 13.5c5.66 4.68 13.8 4.9 19.7 0.544l20.2-14.9c4.52-3.34 6.97-8.8 6.43-14.4l-1.84-19.3c-1-8-6-13-13-15z" fill="#734B46"/><path d="m197 369l-13.3-15.1c-4.2-4.77-11.3-5.73-16.6-2.24l-18.9 12.4c-4.6 3.01-6.75 8.63-5.35 13.9l4.33 16.4c1.5 5.67 6.66 9.59 12.5 9.51l20-0.267c4.49-0.06 8.61-2.47 10.9-6.35l7.79-13.4c2-6 1-12-2-16z" fill="#734B46"/><path d="m129 144l-7.57-24c-2.07-6.57 0.296-13.7 5.87-17.8l15.7-11.4c0.333-0.242 0.719-0.365 1.07-0.579l-2.77-1.18c-5.17-2.2-11.1-1.54-15.7 1.76l-15 11.4c-5.58 4.04-7.94 11.2-5.87 17.8l7.57 24c2.39 7.59 10 12.3 17.9 11l8.05-1.33c-4-2-8-5-9-10z" fill="#644141"/><path d="m281 157l-13.4-24.9c-3.78-7.01-1.84-15.7 4.56-20.5l20.2-15c0.272-0.202 0.598-0.275 0.879-0.457-5.58-3.65-12.9-3.53-18.2 0.457l-20.2 15c-6.4 4.74-8.35 13.5-4.56 20.5l13.4 24.9c3.27 6.06 10.1 9.35 16.8 8.16l7.69-1.34c-4-2-7-4-8-7z" fill="#644141"/><path d="m330 364l-16.4-13.5c-5.31-4.39-7.22-11.7-4.73-18.1l10.2-26.4c1.44-3.72 4.13-6.62 7.44-8.37l-6.28-1.45c-7.76-1.79-15.7 2.4-18.5 9.82l-10.2 26.4c-2.48 6.42-0.576 13.7 4.73 18.1l16.4 13.5c5.44 4.5 13.1 4.76 19 0.914-1 0-2-1-2-1z" fill="#644141"/><path d="m210 268c-7.12-3.56-10.5-11.8-8.02-19.4l7.96-23.9c2.18-6.53 8.29-10.9 15.2-10.9h-17.4c-6.89 0-13 4.41-15.2 10.9l-7.96 23.9c-2.52 7.55 0.901 15.8 8.02 19.4l25.3 12.6c5.06 2.53 10.9 2.02 15.6-0.896l-24-12z" fill="#644141"/><path d="m85.7 273l-5.28-19.4c-1.44-5.31 0.675-11 5.26-14l11.7-7.79-3.59-1.7c-4.06-1.93-8.83-1.58-12.6 0.904l-12.9 8.59c-4.58 3.05-6.7 8.69-5.26 14l5.28 19.4c1.67 6.14 7.6 10.1 13.9 9.34l10.4-1.29c-3.2-1-5.9-4-6.9-8z" fill="#644141"/><path d="m164 394l-4.33-16.4c-1.4-5.32 0.75-10.9 5.35-13.9l16.9-11.1c-4.26-3.79-10.5-4.49-15.4-1.3l-18.9 12.4c-4.6 3.01-6.75 8.63-5.35 13.9l4.33 16.4c1.5 5.67 6.66 9.59 12.5 9.51l16-0.214c-6-1-10-5-12-10z" fill="#644141"/><path d="m216 176c-4.42 0-8-3.58-8-8v-16c0-4.42 3.58-8 8-8s8 3.58 8 8v16c0 4-4 8-8 8z" fill="#C98850"/><path d="m147 211c-3.12 3.12-8.19 3.12-11.3 0l-11-11c-3.12-3.12-3.12-8.19 0-11.3 3.12-3.12 8.19-3.12 11.3 0l11 11c3 3 3 8 0 11z" fill="#925F4A"/><path d="m146 319c-4.11-1.62-6.12-6.27-4.5-10.4l5.88-14.9c1.62-4.11 6.27-6.12 10.4-4.5 4.11 1.62 6.12 6.27 4.5 10.4l-5.88 14.9c-1 3-6 6-10 4z" fill="#C98850"/><path d="m241 342c-4.3 1.03-8.61-1.62-9.64-5.92l-3.73-15.6c-1.03-4.3 1.62-8.61 5.92-9.64s8.61 1.62 9.64 5.92l3.73 15.6c0 5-2 9-6 10z" fill="#925F4A"/><path d="m265 411c-1.67-4.09 0.292-8.76 4.38-10.4l14.8-6.05c4.09-1.67 8.76 0.292 10.4 4.38 1.67 4.09-0.292 8.76-4.38 10.4l-14.8 6.05c-4 2-9 0-10-4z" fill="#925F4A"/><path d="m218 64.2c1.04-4.3 5.36-6.94 9.65-5.9l15.6 3.75c4.3 1.04 6.94 5.36 5.9 9.65-1.04 4.3-5.36 6.94-9.65 5.9l-15.6-3.75c-5-1-7-5.3-6-9.6z" fill="#925F4A"/><path d="m71.9 351c-4.16-1.48-6.33-6.06-4.85-10.2l5.38-15.1c1.48-4.16 6.06-6.33 10.2-4.85 4.16 1.48 6.33 6.06 4.85 10.2l-5.38 15.1c-1.3 4-5.9 6-10.1 5z" fill="#925F4A"/><path d="m60.4 162c4.29-1.04 8.62 1.59 9.66 5.89l3.78 15.5c1.04 4.29-1.59 8.62-5.89 9.66-4.29 1.04-8.62-1.59-9.66-5.89l-3.78-15.5c-1-4 1.7-9 5.9-10z" fill="#C98850"/><path d="m285 235c-3.12-3.12-3.12-8.19 0-11.3l11-11c3.12-3.12 8.19-3.12 11.3 0 3.12 3.12 3.12 8.19 0 11.3l-11 11c-3 3-8 3-11 0z" fill="#925F4A"/><path d="m391 266c3.12-3.12 8.19-3.12 11.3 0l11.3 11.3c3.12 3.12 3.12 8.19 0 11.3-3.12 3.12-8.19 3.12-11.3 0l-11.3-11.3c-3-2-3-8 0-11z" fill="#925F4A"/><path d="m393 330c4.09 1.68 6.04 6.35 4.36 10.4l-6.08 14.8c-1.68 4.09-6.35 6.04-10.4 4.36-4.09-1.68-6.04-6.35-4.36-10.4l6.08-14.8c1-4 6-6 10-4z" fill="#C98850"/><path d="m384 134l5.43 27.2c0.847 4.23 4.9 7.03 9.16 6.32l32.8-5.46c4.23-0.706 7.16-4.62 6.62-8.88l-5.44-43.5c-0.738-5.9-7.43-8.96-12.4-5.66l-32.8 21.8c-3 2-4 5-4 8z" fill="#B97850"/><path d="m360 101l57.5-25.6c3.87-1.72 5.73-6.16 4.24-10.1l-18.6-49.7c-1.51-4.03-5.94-6.14-10-4.78l-37 12c-2.23 0.744-4.02 2.43-4.9 4.62l-13.4 33.6c-0.763 1.91-0.763 4.04 0 5.94l11.7 29.3c1 3.8 5 5.8 10 4.8z" fill="#B97850"/><path d="m350 136h8.48c5.05 0 8.84 4.62 7.84 9.57l-3.74 18.7c-1.12 5.58-7.54 8.25-12.3 5.09l-8.98-5.98c-3-2-4.29-5.76-3.15-9.19l4.24-12.7c1-4 4-6 8-6z" fill="#A5694B"/><path d="m376 200v1.44c0 3.81 2.69 7.1 6.43 7.84l24 4.8c4.95 0.99 9.57-2.8 9.57-7.84v-6c0-4.42-3.58-8-8-8h-24c-4 0-8 4-8 8z" fill="#A5694B"/><path d="m364 91l-11.7-29.3c-0.763-1.91-0.763-4.04 0-5.94l13.4-33.6c0.768-1.92 2.32-3.34 4.18-4.19l-14.7 4.89c-2.23 0.744-4.02 2.43-4.9 4.62l-13.4 33.6c-0.763 1.91-0.763 4.03 0 5.94l11.7 29.3c1.68 4.21 6.53 6.18 10.7 4.34l11-4.87c-2-0.8-5-2.4-6-5.1z" fill="#A5694B"/><path d="m403 160l-6.77-33.8c-0.478-2.39 0.031-4.76 1.18-6.79l-10.2 6.83c-2.7 1.8-4.04 5.05-3.41 8.23l5.43 27.2c0.847 4.23 4.9 7.03 9.16 6.32l9.09-1.52c-1 0-3-2-4-5z" fill="#A5694B"/></svg>
